<svg width="1087" height="783" viewBox="0 0 1087 783" fill="none" xmlns="http://www.w3.org/2000/svg">
<g clip-path="url(#clip0_33_2)">
<path opacity="0.1" d="M631.06 138.03C561.43 135.61 495.06 113.13 431.78 88.5399C368.5 63.9499 305.78 36.6999 237.78 23.6699C194.06 15.2799 144.06 14.0999 108.84 37.5399C74.9401 60.0899 63.9901 99.0199 58.1001 135.14C53.6701 162.32 51.1001 190.92 63.2101 216.37C71.6401 234.03 86.6001 248.88 96.9501 265.8C132.95 324.67 107.5 397.27 68.4801 454.8C50.1801 481.8 28.9501 507.49 14.8301 536.2C0.710078 564.91 -5.82992 597.8 6.53008 627.08C18.7801 656.08 47.9601 677.9 79.5801 693.23C143.8 724.34 219.47 733.24 293.26 738.34C456.6 749.51 620.82 744.67 784.59 739.83C845.2 738.03 906.08 736.22 965.7 726.83C998.81 721.62 1033 713.36 1057.04 693.42C1087.55 668.1 1095.12 625.24 1074.67 593.49C1040.37 540.25 945.54 527.02 921.56 469.88C908.37 438.43 921.92 403.39 941.1 374.22C982.23 311.65 1051.19 256.75 1054.82 185.22C1057.32 136.09 1024.17 86.8999 972.91 63.6499C919.19 39.2599 844.69 42.3399 805.06 82.6499C764.25 124.18 692.53 140.16 631.06 138.03Z" fill="#C36C89"/>
<path d="M839.82 341.01C831.82 339.69 811.06 321.34 811.06 321.34C811.06 321.34 836.65 310.68 844.64 312C848.486 312.632 851.923 314.767 854.195 317.933C856.467 321.1 857.388 325.039 856.755 328.885C856.123 332.731 853.988 336.167 850.822 338.439C847.655 340.711 843.716 341.632 839.87 341L839.82 341.01Z" fill="#C36C89"/>
<path d="M778.06 308.13C779.14 316.13 796.82 337.5 796.82 337.5C796.82 337.5 808.23 312.25 807.15 304.22C806.936 302.274 806.335 300.391 805.382 298.682C804.429 296.972 803.144 295.47 801.602 294.264C800.061 293.058 798.293 292.172 796.404 291.66C794.515 291.147 792.543 291.017 790.603 291.278C788.663 291.539 786.795 292.185 785.108 293.178C783.422 294.171 781.951 295.492 780.782 297.062C779.613 298.632 778.771 300.42 778.303 302.321C777.836 304.222 777.753 306.197 778.06 308.13V308.13Z" fill="#C36C89"/>
<path opacity="0.25" d="M839.82 341.01C831.82 339.69 811.06 321.34 811.06 321.34C811.06 321.34 836.65 310.68 844.64 312C848.486 312.632 851.923 314.767 854.195 317.933C856.467 321.1 857.388 325.039 856.755 328.885C856.123 332.731 853.988 336.167 850.822 338.439C847.655 340.711 843.716 341.632 839.87 341L839.82 341.01Z" fill="black"/>
<path opacity="0.25" d="M778.06 308.13C779.14 316.13 796.82 337.5 796.82 337.5C796.82 337.5 808.23 312.25 807.15 304.22C806.936 302.274 806.335 300.391 805.382 298.682C804.429 296.972 803.144 295.47 801.602 294.264C800.061 293.058 798.293 292.172 796.404 291.66C794.515 291.147 792.543 291.017 790.603 291.278C788.663 291.539 786.795 292.185 785.108 293.178C783.422 294.171 781.951 295.492 780.782 297.062C779.613 298.632 778.771 300.42 778.303 302.321C777.836 304.222 777.753 306.197 778.06 308.13V308.13Z" fill="black"/>
<path d="M826.45 316.27C818.6 318.27 792.16 310 792.16 310C792.16 310 811.23 289.89 819.08 287.85C822.849 286.873 826.851 287.432 830.207 289.406C833.563 291.38 835.998 294.606 836.975 298.375C837.952 302.144 837.393 306.146 835.419 309.502C833.445 312.858 830.219 315.293 826.45 316.27V316.27Z" fill="#C36C89"/>
<path d="M787.51 250.34C792.86 256.43 819.4 264.41 819.4 264.41C819.4 264.41 814.92 237.06 809.57 230.97C808.307 229.491 806.763 228.277 805.027 227.399C803.291 226.522 801.398 225.998 799.458 225.858C797.518 225.719 795.57 225.966 793.726 226.586C791.882 227.206 790.18 228.186 788.719 229.469C787.257 230.753 786.065 232.314 785.212 234.062C784.359 235.81 783.862 237.71 783.749 239.652C783.637 241.594 783.911 243.539 784.557 245.374C785.203 247.208 786.207 248.897 787.51 250.34V250.34Z" fill="#C36C89"/>
<path d="M756.62 311.26C760.86 318.16 785.67 330.51 785.67 330.51C785.67 330.51 785.88 302.8 781.67 295.89C779.574 292.699 776.318 290.451 772.592 289.621C768.866 288.791 764.964 289.444 761.712 291.444C758.46 293.443 756.115 296.63 755.174 300.33C754.232 304.029 754.769 307.95 756.67 311.26H756.62Z" fill="#C36C89"/>
<path d="M727.5 95.41C729.16 89.32 731.16 83.2 732.56 77.03C730.88 83.2 728.87 89.34 727.5 95.41Z" fill="url(#paint0_linear_33_2)"/>
<path d="M720.06 154.07C719.92 153.83 719.82 153.59 719.71 153.37C719.71 153.27 719.61 153.19 719.57 153.09C719.352 153.193 719.128 153.283 718.9 153.36C718.46 153.53 718.01 153.69 717.55 153.82C717.09 153.95 716.9 154.02 716.55 154.1C716.26 154.2 715.962 154.277 715.66 154.33L715.74 154.51C716.11 154.43 716.47 154.36 716.84 154.26L716.94 155.5C717.36 155.5 717.75 155.44 718.13 155.44C718.31 155.43 718.49 155.43 718.67 155.44C719.45 155.44 720.13 155.44 720.67 155.44C720.46 154.99 720.24 154.52 720.06 154.07ZM923.06 477.2C918.36 470.87 908.98 402.93 908.98 402.93C908.98 402.93 890.53 354.62 895.56 335.34C900.59 316.06 881.82 266.73 881.82 266.73C881.82 266.73 869.42 261.34 868.75 253.34C868.75 253.34 818.12 237.34 815.75 225.34C813.83 215.5 782.43 208.44 771.15 206.21C767.71 192.33 764.25 179.38 761.7 172.31C761.01 170.11 760.36 168.21 759.76 166.71C755.45 155.71 742.13 154.71 732.47 155.59C732.051 153.715 731.274 151.939 730.18 150.36C730.02 149.817 729.704 149.333 729.27 148.97C729.062 148.793 728.842 148.633 728.61 148.49C728.435 148.166 728.205 147.875 727.93 147.63C727.655 147.383 727.353 147.168 727.03 146.99C726.797 146.864 726.557 146.754 726.31 146.66C725.73 146.439 725.131 146.275 724.52 146.17C723.808 146.023 723.086 145.93 722.36 145.89C724.125 145.118 725.699 143.967 726.97 142.52C727.835 141.504 728.478 140.319 728.86 139.04C729.177 137.977 729.318 136.869 729.28 135.76C729.02 136.217 728.719 136.649 728.38 137.05C728.8 132.62 726.46 128.12 725.12 123.71C723.496 117.969 723.195 111.934 724.24 106.06C725.58 97.1999 728.9 88.2399 731.15 79.2199C731.156 79.1701 731.156 79.1197 731.15 79.0699C732.33 74.5904 733.06 70.0044 733.33 65.3799C733.72 56.0499 731.33 46.7399 727.49 38.2399C724.08 30.7099 719.05 23.2999 711.35 20.2399C705.63 17.9299 699.22 18.2999 693.06 17.9199C679.24 17.0599 666.06 12.1999 652.92 7.7799C639.78 3.3599 626.26 -0.660102 612.43 0.109898C598.6 0.879898 584.37 7.54989 578.06 19.7899C576.06 23.6099 574.91 27.8599 572.52 31.4499C568.04 38.2199 560.02 41.6099 553.33 46.2799C546.64 50.9499 540.75 57.5799 538.33 65.4899C537.008 69.7515 536.822 74.2843 537.79 78.6399C538.007 79.6235 538.288 80.5922 538.63 81.5399C539.579 84.1822 541.059 86.6019 542.98 88.6499C544.428 90.1635 546.093 91.4542 547.92 92.4799C550.214 93.7516 552.669 94.7069 555.22 95.3199C555.13 95.6199 555.04 95.9399 554.94 96.2499C554.78 96.7599 554.64 97.2499 554.49 97.7999C554.16 99.0299 553.85 100.28 553.59 101.54C553.579 101.63 553.579 101.72 553.59 101.81C552.362 107.498 551.745 113.301 551.75 119.12C551.748 121.872 551.888 124.622 552.17 127.36C556.17 167.94 589.67 199.95 631.06 202.03C632.48 202.1 633.91 202.14 635.36 202.14C636.02 202.14 636.67 202.14 637.36 202.14C638.01 203 638.65 203.88 639.26 204.74C639.87 205.6 640.43 206.48 640.96 207.34L639.51 205.84L638.06 204.51C637.667 205.049 637.228 205.555 636.75 206.02C635.804 205.687 634.839 205.413 633.86 205.2C629.71 204.28 623.39 203.94 615.07 206.45C607.42 208.74 598.07 213.45 587.13 222.4L533.82 254.4L504.98 271.94L494.59 297.34C494.59 297.34 486.78 327.52 478.09 362.1C477.75 362.2 477.42 362.3 477.09 362.42C476.386 362.34 475.678 362.3 474.97 362.3C469.928 362.288 465.078 364.231 461.438 367.72C457.798 371.208 455.652 375.972 455.45 381.01C438.17 402.01 437.19 423.01 441.25 432.65C441.617 433.553 442.08 434.415 442.63 435.22C445.29 439.06 450.26 448.96 455.3 459.51C455.17 460.38 455.09 461.11 455.05 461.66C455.041 461.84 455.041 462.02 455.05 462.2C455.05 462.2 458.05 507.51 448.05 520.5C445.86 523.33 446.19 527.05 448.05 531.17C454.75 545.99 481.24 565.78 481.24 565.78C481.24 565.78 513.01 565.61 530.71 563.68C530.66 565.46 530.62 567.23 530.58 568.96C530.18 586.44 530.18 601.09 530.18 601.09L529.52 619.42C529.52 619.42 523.52 658.05 520.52 668.7C518.63 675.38 520.81 737.23 522.71 782.7H835.73C839.41 755.8 834.22 674.07 834.22 674.07C834.22 674.07 829.29 652.94 829.11 634.52C829.1 634.5 829.095 634.477 829.095 634.455C829.095 634.432 829.1 634.41 829.11 634.39C829.11 632.78 829.11 631.21 829.17 629.67L831.44 629.59L835.52 629.45H835.89C835.89 629.45 835.99 629.07 836.22 628.45C836.76 626.905 837.496 625.437 838.41 624.08C840.15 621.51 842.87 618.99 846.96 618.82C849.22 618.73 852.72 616.9 856.67 614.2C856.696 614.206 856.723 614.206 856.75 614.2C867.38 607.01 881.43 593.74 884.84 591.56C889.53 588.56 911.99 568.56 911.99 568.56C911.99 568.56 915.34 564.32 918.91 559.21L919.04 559.03C923.48 552.63 928.2 544.98 927.04 542.57C925.04 538.25 928.38 527.92 928.38 527.92C938.81 508.83 927.76 483.53 923.06 477.2ZM729.69 169.62C729.786 169.918 729.846 170.227 729.87 170.54C729.62 170.21 729.37 169.86 729.12 169.54L728.88 169.22L728.71 168.98L729.09 168.46C729.09 168.46 729.09 168.46 729.09 168.53C729.354 168.854 729.557 169.223 729.69 169.62ZM726.33 160.76C725.24 160.98 724.38 161.18 723.82 161.33C723.11 160.07 722.43 158.81 721.82 157.53C723.423 158.46 724.933 159.542 726.33 160.76ZM724.45 162.34C724.447 162.32 724.447 162.3 724.45 162.28L724.53 162.34C724.94 162.61 725.34 162.87 725.71 163.14C726.04 163.38 726.34 163.61 726.64 163.85C726.44 164.2 726.22 164.56 726 164.85C725.65 164.3 725.32 163.77 725 163.22C724.8 163 724.62 162.7 724.45 162.34ZM718.45 150C720.382 149.809 722.328 149.809 724.26 150C724.53 150 724.77 150.05 725.01 150.09C725.552 150.174 726.085 150.311 726.6 150.5C727.782 152.153 728.509 154.088 728.71 156.11L728.17 156.19L727.64 156.29C726.64 156.46 725.64 156.63 724.86 156.79L723.86 157C722.53 157.29 721.76 157.51 721.73 157.52C721.6 157.25 721.47 157 721.33 156.74C721.11 156.31 720.88 155.87 720.68 155.44C720.48 155.01 720.22 154.52 720.01 154.07C719.87 153.83 719.77 153.59 719.66 153.37C719.66 153.27 719.56 153.19 719.52 153.09C719.462 152.984 719.411 152.874 719.37 152.76C718.76 151.52 718.2 150.28 717.66 149.06C717.6 148.94 717.55 148.81 717.5 148.69L718.26 148.64V148.9L718.45 150ZM479.86 770.34C479.78 755.45 478.7 739.34 475.7 724.22C474.42 717.79 473.1 711.36 471.76 705.04C471.42 703.46 471.09 701.9 470.76 700.34L467.68 700.75H467.4C459 661.14 450.22 626.24 450.22 626.24C450.22 626.24 432.78 559.65 434.8 554.34C435.06 553.65 434.73 551.79 433.99 549.06C429.77 533.92 412.15 492.2 405.99 477.94C405.99 477.88 405.94 477.81 405.92 477.76C404.92 475.37 404.2 473.76 403.98 473.29L405.43 452.01L405.51 450.73L405.7 448.01L405.62 447.94L405.7 446.68C405.7 446.68 390.48 434.2 364.7 425.19C363.7 424.83 362.64 424.48 361.59 424.14C362.88 415.53 364.59 405.81 366.82 396.34C367.03 395.39 367.26 394.47 367.5 393.54C367.71 392.61 367.95 391.71 368.19 390.8C368.57 389.32 368.98 387.86 369.4 386.42C370.79 385.98 372.16 385.49 373.51 384.97L374.03 384.77C390.661 378.299 404.383 366.02 412.657 350.209C420.931 334.397 423.195 316.123 419.03 298.77C416.655 288.928 412.27 279.685 406.15 271.62C405.69 271 405.2 270.38 404.71 269.77C404.22 269.16 403.63 268.48 403.08 267.86C405.97 261.29 409.38 255.04 409.66 248.65C409.71 247.841 409.71 247.029 409.66 246.22V246.12C409.29 242.01 407.47 237.85 403.23 233.48C397.04 227.07 388.23 223.82 379.42 222.26C370.61 220.7 361.63 220.66 352.77 219.61C338.08 217.85 323.77 213.32 309.08 211.93C290.986 210.254 272.769 213.358 256.25 220.93C245.32 225.93 234.25 234.67 233.59 246.66C233.05 256.57 239.95 266.07 238.21 275.86C236.48 285.48 226.68 293.05 227.54 302.78C227.87 306.58 229.82 309.98 232.26 313.01C233.1 314.01 233.99 315.01 234.91 316.01C238.47 319.78 242.39 323.4 244.38 328.15C244.46 328.35 244.54 328.55 244.61 328.75C246.3 333.44 245.54 339.37 241.36 342.06C241.383 342.078 241.4 342.102 241.41 342.13C241.47 342.21 241.53 342.27 241.58 342.35C241.586 342.334 241.586 342.316 241.58 342.3C243.062 344.057 245.06 345.303 247.29 345.86L248.14 346.12C247.45 346.87 246.8 347.65 246.14 348.47L245.71 349.04C244.608 350.522 243.606 352.075 242.71 353.69C242.2 354.59 241.71 355.49 241.3 356.39C239.929 359.133 238.937 362.05 238.35 365.06C237.28 371.68 238.79 378.58 237.17 385.06C235.17 393.06 228.84 399.2 225.27 406.63C218.51 420.63 222.34 437.06 223.7 452.52C225.55 473.52 222.55 494.61 219.56 515.47C217.973 526.563 216.386 537.667 214.8 548.78C210.8 576.673 206.8 604.567 202.8 632.46C201.34 642.68 199.61 653.46 192.8 661.35H192.87C192.87 661.35 192.87 661.41 192.8 661.43C194.844 662.323 197.018 662.884 199.24 663.09C208.13 663.98 217.55 659.68 225.55 654.98C231.885 651.319 237.885 647.106 243.48 642.39C242.66 645.39 241.78 648.66 240.84 652.18C240.843 652.213 240.843 652.247 240.84 652.28C229.55 695.28 211.39 774.11 211.39 774.11C211.39 774.11 209.74 777.54 207.6 782.65H489.6C486.3 778.65 483.23 774.82 480.83 771.73L479.86 770.34ZM271.06 372.74C271.13 372.62 271.18 372.51 271.25 372.4C271.25 372.72 271.25 373.03 271.25 373.33C271.25 373.63 271.25 373.9 271.25 374.18C271.25 374.46 271.25 374.43 271.25 374.57C271.25 374.98 271.16 375.39 271.09 375.8C271.09 375.8 271.09 375.85 271.09 375.89L272.09 376.26L273.25 376.74C280.103 379.447 287.043 381.897 294.07 384.09C294.79 384.32 295.52 384.54 296.25 384.75L296.4 385.99C296.58 387.26 296.75 388.55 296.91 389.84C296.91 389.84 296.91 389.9 296.91 389.94C297.36 393.51 297.8 397.07 298.19 400.55C298.19 400.55 279.83 393.55 280.06 404.18C280.049 404.37 280.049 404.56 280.06 404.75C280.039 405.003 280.039 405.257 280.06 405.51C280.23 413.79 282.82 418.7 283.34 421.22C283.309 421.324 283.254 421.42 283.18 421.5C282.736 422.465 282.583 423.539 282.74 424.59C282.722 426.379 282.863 428.166 283.16 429.93C282.62 430.26 282.09 430.59 281.56 430.93C281.16 431.18 280.78 431.46 280.39 431.74C277.937 423.23 274.727 414.957 270.8 407.02C268.05 401.36 264.96 395.46 264.99 389.25C264.99 388.85 264.99 388.44 265.04 388.03C265.151 386.23 265.494 384.452 266.06 382.74C266.29 382.09 266.54 381.45 266.82 380.82C267.473 379.323 268.204 377.861 269.01 376.44C269.53 375.5 270.08 374.57 270.61 373.63C270.78 373.35 270.94 373.06 271.1 372.78L271.06 372.74ZM720.06 154.07C719.92 153.83 719.82 153.59 719.71 153.37C719.71 153.27 719.61 153.19 719.57 153.09C719.352 153.193 719.128 153.283 718.9 153.36C718.46 153.53 718.01 153.69 717.55 153.82C717.09 153.95 716.9 154.02 716.55 154.1L715.66 154.33L715.74 154.51C716.11 154.43 716.47 154.36 716.84 154.26L716.94 155.5C717.36 155.5 717.75 155.44 718.13 155.44H718.67C719.45 155.44 720.13 155.44 720.67 155.44C720.46 154.99 720.24 154.52 720.06 154.07Z" fill="url(#paint1_linear_33_2)"/>
<path d="M501.56 300.95L495.56 303.6C495.56 303.6 456.45 455.54 456.45 467.82C456.45 480.1 539.38 548.43 539.38 548.43L552.32 461.09C552.32 461.09 533.74 260.8 501.56 300.95Z" fill="#E8F5FF"/>
<path d="M683.47 252.62L648.82 234.54C646.879 226.266 643.435 218.42 638.66 211.39C633.59 204.07 626.85 196.88 618.45 193.13C597.22 183.61 708.25 133.64 708.25 133.64C709.999 139.643 712.058 145.551 714.42 151.34C720.14 165.46 729.63 183.72 741.86 188.92C762.65 197.77 683.47 252.62 683.47 252.62Z" fill="#FFC1C7"/>
<path opacity="0.1" d="M714.42 151.34C709.676 168.025 699.81 182.798 686.216 193.573C672.623 204.348 655.987 210.58 638.66 211.39C633.59 204.07 626.85 196.88 618.45 193.13C597.22 183.61 708.25 133.64 708.25 133.64C709.999 139.643 712.058 145.551 714.42 151.34V151.34Z" fill="black"/>
<path d="M717.54 126.11C717.544 142.474 712.695 158.471 703.607 172.079C694.518 185.687 681.598 196.293 666.481 202.558C651.364 208.822 634.729 210.463 618.679 207.272C602.629 204.081 587.886 196.203 576.315 184.633C564.743 173.062 556.863 158.32 553.67 142.271C550.477 126.222 552.116 109.586 558.379 94.4683C564.641 79.3504 575.246 66.4293 588.853 57.3391C602.46 48.2489 618.456 43.3981 634.82 43.4001C645.696 43.3497 656.475 45.4547 666.533 49.5933C676.591 53.7319 685.729 59.8222 693.421 67.5125C701.112 75.2027 707.203 84.3405 711.343 94.3981C715.483 104.456 717.589 115.234 717.54 126.11V126.11Z" fill="#FFC1C7"/>
<path d="M729.48 242L706.92 294.64L687.02 329.58H623.32L604.74 281.81L612.27 232.27H660.92L692.33 230.5L702.94 226.96L709.78 230.84L729.48 242Z" fill="#575A89"/>
<path opacity="0.1" d="M721.71 171.83C721.71 171.83 735.78 174.83 723.18 185.16C710.58 195.49 667.11 228.34 667.11 228.34C667.11 228.34 682.38 241.94 679.22 257.87L729.81 229.67L738.81 184.55C738.81 184.55 739.82 170.99 721.71 171.83Z" fill="black"/>
<path opacity="0.1" d="M677.06 228.34L644.88 233.65C644.88 233.65 651.52 258.2 648.2 265.17C648.1 265.387 648.016 265.611 647.95 265.84L634.82 301.33L644.66 329.2L678.72 282.75L667.11 265.17C667.11 265.17 679.38 248.91 686.68 243.27C693.98 237.63 677.06 228.34 677.06 228.34Z" fill="black"/>
<path d="M677.06 226.97L644.88 232.27C644.88 232.27 651.52 256.82 648.2 263.79C648.1 264.007 648.016 264.231 647.95 264.46L634.82 299.95L644.66 327.82L678.72 281.34L667.11 263.76C667.11 263.76 679.38 247.5 686.68 241.86C693.98 236.22 677.06 226.97 677.06 226.97Z" fill="#DCE6F2"/>
<path d="M723.06 169.18C723.06 169.18 737.13 172.18 724.52 182.51C711.91 192.84 667.11 228.34 667.11 228.34C667.11 228.34 683.7 239.29 680.55 255.21L731.14 227.02L740.14 181.9C740.14 181.9 741.14 168.34 723.06 169.18Z" fill="#575A89"/>
<path opacity="0.1" d="M640.87 214.52C640.87 214.52 643.94 220.26 657.49 230.61C657.49 230.61 634.93 242.61 643.56 259.48L609.05 250.48L603.74 233.89L640.87 214.52Z" fill="black"/>
<path d="M639.54 213.2C639.54 213.2 642.61 218.94 656.16 229.29C656.16 229.29 633.6 241.23 642.23 258.15L607.73 249.15L602.42 232.57L639.54 213.2Z" fill="#575A89"/>
<path opacity="0.1" d="M729.48 242L706.92 294.64L687.06 329.58H623.32L604.74 281.81L612.26 232.27H625.79C625.57 243.83 629.79 257.41 629.52 262.46C629.06 270.76 641.9 315.54 641.9 315.54C641.9 315.54 668.77 272.08 679.38 268.21C686.05 265.78 700.18 245.56 709.77 230.84L729.48 242Z" fill="black"/>
<path d="M818.35 519.01L816.06 521.89C816.06 521.89 832.65 605.16 828.06 624.07C827.28 627.478 826.834 630.955 826.73 634.45V634.6C825.92 653.84 831.73 678.81 831.73 678.81C831.73 678.81 836.37 752.41 833.73 782.68H523.11C521.29 737.92 519.33 679.93 521.11 673.5C524.11 662.89 530.11 624.4 530.11 624.4L530.77 606.16C530.77 606.16 530.77 588.53 531.31 568.89C531.54 560.06 531.88 550.79 532.37 542.57C533 532.23 533.88 523.52 535.09 519.24C535.835 515.996 536.264 512.687 536.37 509.36C536.37 509.05 536.37 508.73 536.43 508.41C536.43 507.41 536.53 506.33 536.57 505.22C536.57 504.91 536.57 504.6 536.57 504.22C536.76 497.78 536.69 490.14 536.48 482.22C536.48 481.79 536.48 481.35 536.48 480.91C536.31 474.97 536.06 468.91 535.78 463.15C534.91 445.15 533.78 429.93 533.78 429.93L495.63 303.53L505.91 278.21L534.44 260.73L587.19 228.88C612.92 207.73 629.86 210.27 636.32 212.59C636.947 212.804 637.562 213.054 638.16 213.34C638.36 213.44 638.52 213.52 638.67 213.61C638.875 213.707 639.073 213.821 639.26 213.95V213.95C637.491 214.801 635.954 216.067 634.78 217.64C633.457 219.43 632.514 221.472 632.01 223.64C631.672 224.984 631.435 226.351 631.3 227.73C631.17 229.18 631.12 230.68 631.12 232.19C631.191 235.501 631.475 238.805 631.97 242.08C631.97 242.14 631.97 242.22 631.97 242.3C632.3 244.64 632.71 246.93 633.11 249.08C633.105 249.116 633.105 249.153 633.11 249.19C633.57 251.7 634.03 254.02 634.34 256.02C634.4 256.38 634.45 256.71 634.5 257.02C634.72 258.342 634.824 259.68 634.81 261.02C634.922 264.255 635.358 267.471 636.11 270.62C636.37 271.94 636.67 273.35 637 274.82C637.45 276.82 637.94 279 638.47 281.22C638.76 282.44 639.07 283.7 639.39 284.95C639.51 285.45 639.64 285.95 639.76 286.46L639.96 287.25C642.09 295.72 644.4 304.15 645.82 309.25C646.66 312.25 647.19 314.1 647.19 314.1C647.19 314.1 662.25 289.75 674.27 275.89C674.45 275.69 674.61 275.5 674.78 275.32C675.97 273.95 677.14 272.7 678.26 271.6C680.71 269.16 682.91 267.42 684.68 266.78C685.057 266.642 685.422 266.471 685.77 266.27C690.69 263.48 698.63 253.35 706.06 242.74C706.79 241.74 707.5 240.65 708.22 239.62C709.87 237.24 711.47 234.85 712.98 232.56C714.14 230.81 715.25 229.11 716.3 227.49C721.3 219.71 724.82 213.91 724.82 213.91L731.76 213.6L732.97 213.54H733.78L765.29 212.08C765.29 212.08 766.65 212.31 768.89 212.76C769.01 212.76 769.13 212.76 769.26 212.84C780.44 215.06 811.5 222.09 813.4 231.84C815.72 243.78 865.82 259.71 865.82 259.71C866.48 267.71 878.75 272.98 878.75 272.98C878.75 272.98 897.33 322.08 892.36 341.32C887.45 360.32 905.14 407.32 905.61 408.64L902.22 412.92L818.35 519.01Z" fill="#E8F5FF"/>
<path opacity="0.1" d="M721.7 168.34C721.7 168.34 752.37 159.64 759.34 177.55C766.31 195.46 781.9 267.79 781.9 267.79C781.9 267.79 741.42 275.42 730.81 267.79C724.586 263.262 716.883 261.247 709.24 262.15L686.35 277.74L679.59 275.74C679.59 275.74 716.21 221.3 724.17 202.8C732.13 184.3 734.82 176.03 721.7 168.34Z" fill="black"/>
<path d="M720.37 164.34C720.37 164.34 751.06 155.64 758.06 173.55C765.06 191.46 780.62 263.79 780.62 263.79C780.62 263.79 740.15 271.42 729.53 263.79C723.31 259.261 715.61 257.247 707.97 258.15L685.06 273.74L678.3 271.74C678.3 271.74 714.92 217.3 722.88 198.8C730.84 180.3 733.49 172.05 720.37 164.34Z" fill="#E8F5FF"/>
<path opacity="0.1" d="M514.5 452.89C514.5 452.89 537.39 458.53 541.71 471.47C546.03 484.41 524.79 484.74 524.79 484.74C524.79 484.74 511.85 461.85 514.5 452.89Z" fill="black"/>
<path opacity="0.1" d="M599.76 548.43C599.76 548.43 543.7 663.22 556.64 674.17C569.58 685.12 599.76 548.43 599.76 548.43Z" fill="black"/>
<path opacity="0.1" d="M677.06 463.84C677.06 463.84 721.85 575.34 712.89 592.56C703.93 609.78 732.13 592.56 732.13 592.56L677.06 463.84Z" fill="black"/>
<path d="M739.43 573.98C739.43 573.98 588.15 581.28 632.28 628.39C676.41 675.5 766.97 630.39 766.97 630.39L739.43 573.98Z" fill="#FFC1C7"/>
<path opacity="0.1" d="M717.54 126.11C717.554 136.96 715.423 147.706 711.27 157.73C709.88 157.89 708.49 157.99 707.15 158.05C705.15 153.66 706.22 148.59 706.26 143.76C706.3 138.93 704.52 133.25 699.87 131.95C690.6 129.34 684.2 146.67 675.06 143.54C668.06 141.16 669.89 130.54 665.86 124.41C662.67 119.56 656.28 118.19 651.31 115.15C640.74 108.66 641.06 98.2801 636.15 88.4601C631.01 78.1701 620.15 81.2101 610.72 87.2801C603.56 91.9001 597.38 98.0901 589.72 101.77C583.09 104.97 575.64 106.13 568.29 106.3C563.765 106.475 559.239 105.997 554.85 104.88C560.012 85.474 572.056 68.6078 588.736 57.4268C605.416 46.2458 625.594 41.5133 645.506 44.1118C665.418 46.7104 683.705 56.4626 696.957 71.5498C710.209 86.637 717.521 106.029 717.53 126.11H717.54Z" fill="black"/>
<path d="M610.75 84.63C603.58 89.25 597.41 95.43 589.75 99.13C583.12 102.32 575.67 103.48 568.32 103.65C559.32 103.85 549.63 102.27 543.48 95.77C537.83 89.77 536.48 80.5401 538.87 72.6701C541.26 64.8001 546.99 58.2701 553.72 53.5401C560.45 48.8101 568.26 45.5401 572.72 38.7701C575.08 35.1901 576.22 30.9701 578.18 27.1601C584.45 14.9701 598.55 8.37005 612.18 7.55005C625.81 6.73005 639.32 10.7901 652.3 15.1901C665.28 19.5901 678.36 24.4301 692.06 25.3401C698.16 25.7201 704.5 25.3401 710.16 27.6501C717.77 30.7401 722.76 38.1301 726.16 45.6501C729.97 54.1301 732.34 63.39 731.94 72.65C731.1 92.42 718.04 111.82 723.78 130.76C725.3 135.81 728.15 140.99 726.63 146.04C724.41 153.41 714.9 155.09 707.21 155.44C705.21 151.05 706.28 145.97 706.32 141.15C706.36 136.33 704.58 130.64 699.94 129.34C690.66 126.75 684.26 144.05 675.14 140.93C668.19 138.54 669.99 127.93 665.95 121.8C662.76 116.94 656.36 115.58 651.4 112.54C640.83 106.05 641.15 95.67 636.24 85.85C631.06 75.51 620.19 78.55 610.75 84.63Z" fill="#C36C89"/>
<path d="M464.06 465.16L456.43 467.82C456.43 467.82 459.43 512.94 449.43 525.88C439.43 538.82 482.27 570.99 482.27 570.99C482.27 570.99 540.99 570.66 542.65 565.99C544.31 561.32 539.65 482.39 539.65 482.39C539.65 482.39 508.13 470.11 510.78 450.54C510.78 450.54 501.16 496.65 486.9 494.66C472.64 492.67 456.45 480.76 464.06 465.16Z" fill="#E8F5FF"/>
<path opacity="0.1" d="M489.51 508.62C500.627 508.62 509.64 500.378 509.64 490.21C509.64 480.042 500.627 471.8 489.51 471.8C478.392 471.8 469.38 480.042 469.38 490.21C469.38 500.378 478.392 508.62 489.51 508.62Z" fill="black"/>
<path d="M511.52 466.49C511.52 466.49 507.52 344.41 472.7 371.61C437.88 398.81 437.54 431.34 444.17 440.95C450.8 450.56 472.06 498.67 472.06 498.67C475.386 500.597 479.12 501.709 482.959 501.915C486.797 502.121 490.629 501.414 494.141 499.853C497.654 498.292 500.746 495.921 503.166 492.934C505.585 489.947 507.262 486.43 508.06 482.67L511.52 466.49Z" fill="#FFC1C7"/>
<path opacity="0.1" d="M728.73 157.26C728.567 156.724 728.255 156.245 727.83 155.88C726.11 154.31 722.41 153.76 716.83 154.24L717.06 156.88C724.5 156.24 725.97 157.72 726.16 157.97V158.22L726.39 158.55C727.317 159.797 727.975 161.223 728.319 162.739C728.663 164.254 728.687 165.825 728.39 167.35C726.76 175.5 716.75 181.99 716.65 182.06L716.41 182.2L716.26 182.43C711.94 188.84 687.51 206.93 681.12 211.61L680.56 210.97C677.7 213.45 652.56 235.46 651.2 243.89C650.32 249.18 644.36 251.23 642.2 251.8C639.92 250.07 632.52 244.18 628.67 237.58C625.06 231.37 639.59 219.25 640.87 214.52L638.87 212.47C638.66 213.23 620 230.67 625.19 239.58C629.35 246.73 636.95 252.85 639.61 254.87C638.76 262.59 633.47 307.92 625.34 318.66C615.24 332.01 606.75 399.29 607.69 422.78C608.52 443.65 603.07 483.07 584.87 500C581.719 503.059 577.918 505.368 573.75 506.753C569.582 508.138 565.155 508.564 560.8 508H560.58H560.36C560.1 508 533.7 510.7 511.52 492C493.37 476.73 483.09 451.81 480.95 417.91H480.51L480.33 408.04C485.251 407.272 489.683 404.626 492.694 400.659C495.706 396.692 497.062 391.712 496.479 386.765C495.895 381.819 493.418 377.291 489.566 374.134C485.714 370.976 480.788 369.434 475.824 369.832C470.859 370.23 466.241 372.536 462.942 376.267C459.642 379.998 457.917 384.863 458.129 389.839C458.341 394.815 460.473 399.515 464.078 402.952C467.683 406.389 472.479 408.295 477.46 408.27H477.68L477.86 418.08L476.98 418.14C479.18 453.14 489.98 479.03 508.98 495.02C523.421 506.987 541.868 513.024 560.59 511.91C561.918 512.055 563.254 512.129 564.59 512.13C573.171 512.174 581.428 508.853 587.59 502.88C606.76 485.03 612.59 444.16 611.68 422.58C610.68 397.69 619.59 332.83 628.53 321.02C637.29 309.43 642.6 264.27 643.53 255.52C646.7 254.63 653.87 251.82 655.09 244.52C655.97 239.24 672.76 222.97 683.09 213.96L682.78 213.6C688.34 209.54 705.63 196.74 714.2 188.52C716.86 185.97 719.5 183.42 722.26 180.99C725.58 178.05 729.8 173.38 730.91 167.86C731.288 166.038 731.29 164.158 730.915 162.335C730.54 160.512 729.797 158.785 728.73 157.26V157.26Z" fill="black"/>
<path d="M639.27 254.24C638.85 253.95 628.89 246.82 623.9 238.24C618.72 229.33 637.38 211.9 637.58 211.14L639.58 213.19C638.31 217.91 623.78 230.04 627.39 236.24C631.94 244.07 641.52 250.92 641.62 250.99L639.27 254.24Z" fill="#353146"/>
<path d="M679.82 213.55L678.26 211.4C678.58 211.17 709.99 188.45 714.94 181.1L715.1 180.88L715.33 180.73C715.43 180.66 725.44 174.18 727.07 166.02C727.37 164.497 727.348 162.927 727.003 161.413C726.659 159.898 726 158.474 725.07 157.23L724.84 156.89V156.65C724.64 156.39 723.17 154.92 715.73 155.56L715.5 152.91C721.09 152.43 724.78 152.98 726.5 154.55C726.928 154.919 727.243 155.4 727.41 155.94C728.491 157.461 729.249 159.186 729.638 161.011C730.027 162.836 730.038 164.721 729.67 166.55C728.56 172.08 724.35 176.75 721.02 179.68C718.27 182.11 715.62 184.68 712.97 187.21C702.92 196.84 680.92 212.76 679.82 213.55Z" fill="#E8F5FF"/>
<path d="M479.04 404.558L476.39 404.607L476.685 420.714L479.335 420.666L479.04 404.558Z" fill="#E8F5FF"/>
<path d="M476.17 407C486.857 407 495.52 398.337 495.52 387.65C495.52 376.963 486.857 368.3 476.17 368.3C465.483 368.3 456.82 376.963 456.82 387.65C456.82 398.337 465.483 407 476.17 407Z" fill="#C36C89"/>
<path d="M476.17 403.72C485.045 403.72 492.24 396.525 492.24 387.65C492.24 378.775 485.045 371.58 476.17 371.58C467.295 371.58 460.1 378.775 460.1 387.65C460.1 396.525 467.295 403.72 476.17 403.72Z" fill="#E8F5FF"/>
<path d="M563.33 510.84C561.994 510.842 560.658 510.772 559.33 510.63C540.609 511.732 522.166 505.697 507.72 493.74C488.72 477.74 477.94 451.88 475.72 416.85L479.72 416.6C481.86 450.5 492.14 475.43 510.3 490.69C532.48 509.34 558.87 506.69 559.13 506.69H559.35H559.57C563.927 507.252 568.354 506.824 572.523 505.439C576.692 504.054 580.495 501.747 583.65 498.69C601.84 481.76 607.29 442.34 606.46 421.47C605.46 397.96 613.95 330.68 624.06 317.34C632.91 305.65 638.4 252.96 638.46 252.43L638.61 250.93L640.09 250.67C640.18 250.67 648.82 249.03 649.9 242.57C651.3 234.15 676.4 212.14 679.25 209.65L681.86 212.65C671.49 221.65 654.7 237.93 653.86 243.22C652.64 250.54 645.47 253.34 642.31 254.22C641.31 262.98 636.04 308.13 627.31 319.72C618.37 331.53 609.46 396.39 610.46 421.28C611.32 442.86 605.55 483.74 586.38 501.58C580.207 507.568 571.93 510.893 563.33 510.84Z" fill="#353146"/>
<g opacity="0.1">
<path d="M726.06 102.47C727.7 96.4099 729.68 90.3099 731.06 84.1699C729.41 90.3399 727.42 96.4099 726.06 102.47Z" fill="black"/>
<path d="M709.33 150.09C707.33 145.7 708.4 140.62 708.44 135.8C708.48 130.98 706.7 125.34 702.06 123.99C692.78 121.4 686.38 138.71 677.26 135.58C670.26 133.19 672.11 122.58 668.07 116.45C664.88 111.59 658.49 110.23 653.53 107.19C642.95 100.7 643.27 90.32 638.37 80.5C633.22 70.2 622.37 73.24 612.93 79.32C605.76 83.94 599.59 90.13 591.93 93.82C585.3 97.01 577.85 98.17 570.5 98.34C561.55 98.55 551.81 96.96 545.66 90.46C540.92 85.46 539.21 78.13 540.19 71.26C540.02 71.73 539.87 72.2 539.72 72.67C537.32 80.54 538.72 89.79 544.33 95.77C550.48 102.27 560.22 103.85 569.17 103.65C576.53 103.48 583.97 102.32 590.61 99.13C598.29 95.43 604.46 89.25 611.61 84.63C621.05 78.55 631.91 75.51 637.05 85.81C641.95 95.63 641.64 106.01 652.21 112.5C657.21 115.5 663.56 116.9 666.76 121.76C670.76 127.91 668.99 138.5 675.95 140.89C685.06 144.01 691.46 126.71 700.74 129.3C705.38 130.6 707.17 136.3 707.12 141.11C707.07 145.92 706.03 151.01 708.01 155.4C715.7 155.05 725.21 153.4 727.44 146C727.747 144.938 727.889 143.835 727.86 142.73C724.61 148.34 716.25 149.78 709.33 150.09Z" fill="black"/>
</g>
<path opacity="0.1" d="M890.06 396.49L901.67 408.77C901.67 408.77 910.96 476.44 915.6 482.77C920.24 489.1 931.2 514.28 920.91 533.19C920.91 533.19 917.59 543.48 919.58 547.79C921.57 552.1 904.66 573.67 904.66 573.67C904.66 573.67 882.43 593.57 877.78 596.56C873.13 599.55 848.59 623.43 840.3 623.76C832.01 624.09 829.3 634.38 829.3 634.38L782.52 636.04C782.52 636.04 756.68 634.69 751.06 638.34C751.06 638.34 754.06 598.86 725.19 572.98L762.01 559.71C762.01 559.71 775.95 553.71 780.26 547.44C782.971 543.596 786.818 540.697 791.26 539.15C791.26 539.15 801.54 531.85 801.87 527.87C802.2 523.89 814.44 519.01 814.44 519.01L807.51 459.86L811.16 361.66C811.16 361.66 822.77 279.38 847.32 284.03C871.87 288.68 890.06 396.49 890.06 396.49Z" fill="black"/>
<path d="M894.06 396.49L905.67 408.77C905.67 408.77 914.96 476.44 919.6 482.77C924.24 489.1 935.2 514.28 924.91 533.19C924.91 533.19 921.6 543.48 923.59 547.79C925.58 552.1 908.66 573.67 908.66 573.67C908.66 573.67 886.43 593.57 881.78 596.56C877.13 599.55 852.59 623.43 844.3 623.76C836.01 624.09 833.3 634.38 833.3 634.38L786.52 636.04C786.52 636.04 760.66 634.69 755.06 638.34C755.06 638.34 758.06 598.86 729.19 572.98L766.01 559.71C766.01 559.71 779.95 553.71 784.26 547.44C786.971 543.596 790.818 540.697 795.26 539.15C795.26 539.15 805.54 531.85 805.87 527.87C806.2 523.89 818.44 519.01 818.44 519.01L811.51 459.86L815.16 361.66C815.16 361.66 826.77 279.38 851.32 284.03C875.87 288.68 894.06 396.49 894.06 396.49Z" fill="#E8F5FF"/>
<path opacity="0.1" d="M850.9 495.69C850.9 495.69 885.07 486.69 894.03 497.69C902.99 508.69 850.9 495.69 850.9 495.69Z" fill="black"/>
<path opacity="0.1" d="M842.94 510.78C854.55 518.91 890.38 519.24 890.38 519.24L842.94 510.78Z" fill="black"/>
<path opacity="0.1" d="M860.52 551.42C861.52 551.75 885.15 576.97 895.07 569.34C904.99 561.71 860.52 551.42 860.52 551.42Z" fill="black"/>
<path opacity="0.1" d="M542.28 339.76C542.28 339.76 549.22 387.54 545.8 407C542.38 426.46 554.86 450.57 554.86 450.57L542.28 339.76Z" fill="black"/>
<path d="M388.64 359.19C380.64 365.46 374.8 380.3 370.57 396.61C363.19 425.06 360.78 458.05 360.78 458.05C360.78 458.05 297.08 443.45 301.72 436.82C304.64 432.65 300.72 401.23 297.45 378.45C295.5 364.99 293.76 354.54 293.76 354.54C293.76 354.54 410.54 341.93 388.64 359.19Z" fill="#FFCCD0"/>
<path opacity="0.1" d="M388.64 357.86C380.64 364.14 374.8 378.97 370.57 395.28C357.878 399.134 344.38 399.481 331.507 396.286C318.634 393.09 306.866 386.471 297.45 377.13C295.5 363.66 293.76 353.21 293.76 353.21C293.76 353.21 410.54 340.61 388.64 357.86Z" fill="black"/>
<path d="M422.88 322.12C422.887 339.513 416.74 356.348 405.528 369.645C394.315 382.942 378.76 391.843 361.616 394.774C344.471 397.705 326.843 394.477 311.85 385.66C296.857 376.843 285.467 363.006 279.695 346.598C273.923 330.191 274.142 312.27 280.313 296.008C286.483 279.747 298.208 266.192 313.411 257.744C328.615 249.295 346.317 246.498 363.385 249.846C380.453 253.195 395.786 262.473 406.67 276.04C417.159 289.108 422.877 305.363 422.88 322.12V322.12Z" fill="#FFCCD0"/>
<path opacity="0.1" d="M480.96 782.68H459.96L458.19 745.59L456.34 707.2C456.34 707.2 461.11 706.49 468.71 705.43L471.78 705.02H472.03C473.69 712.81 475.33 720.81 476.91 728.8C479.54 742.985 480.908 757.374 481 771.8C481 772.8 481 773.8 481 774.74C481.06 777.41 481 780.08 480.96 782.68Z" fill="black"/>
<path d="M476.93 782.68H213.57C214.71 780.09 215.47 778.52 215.47 778.52C215.47 778.52 236.54 686.34 247.25 647.34C247.253 647.307 247.253 647.273 247.25 647.24C248.588 641.942 250.204 636.718 252.09 631.59V631.59C252.212 631.241 252.369 630.906 252.56 630.59C257.86 621.97 264.5 612.68 255.21 599.41C245.92 586.14 249.21 527.75 249.21 527.75C249.21 527.75 260.49 477.98 272.43 451.44C274.242 447.329 276.814 443.597 280.01 440.44C281.049 439.423 282.158 438.481 283.33 437.62V437.62C284.22 436.951 285.149 436.333 286.11 435.77L286.3 435.65C291.316 432.806 296.885 431.077 302.63 430.58C306.71 430.154 310.829 430.268 314.88 430.92C334.24 433.76 349.74 438.51 362.06 443.92C395.45 458.59 405.56 478.25 405.76 478.66L405.84 478.83C407.18 481.96 426.78 527.72 433.84 549.07C435.67 554.63 436.67 558.54 436.27 559.61C434.27 564.91 451.53 631.26 451.53 631.26C451.53 631.26 459.53 663.26 467.53 700.77C467.88 702.33 468.21 703.89 468.53 705.47C469.96 712.28 471.38 719.22 472.75 726.15C475.404 740.432 476.773 754.924 476.84 769.45C476.987 773.977 477.016 778.387 476.93 782.68Z" fill="#C36C89"/>
<path opacity="0.1" d="M301.06 407.76C301.06 407.76 282.89 400.76 283.11 411.38C283.33 422 287.54 427.08 286.21 428.63C284.88 430.18 286.87 439.47 286.87 439.47C286.87 439.47 311.42 439.47 322.7 444.55C333.98 449.63 375.56 459.81 380.87 462.91C386.18 466.01 405.87 479.91 405.87 479.91L407.64 453.59C407.64 453.59 387.29 436.78 353.9 428.16C320.51 419.54 301.06 407.76 301.06 407.76Z" fill="black"/>
<path d="M301.06 406.43C301.06 406.43 282.89 399.43 283.11 410.05C283.33 420.67 287.54 425.75 286.21 427.3C284.88 428.85 286.87 438.14 286.87 438.14C286.87 438.14 311.42 438.14 322.7 443.23C333.98 448.32 375.56 458.49 380.87 461.58C386.18 464.67 405.87 478.58 405.87 478.58L407.66 452.34C407.66 452.34 387.31 435.53 353.92 426.91C320.53 418.29 301.06 406.43 301.06 406.43Z" fill="#C36C89"/>
<path opacity="0.1" d="M355.91 469.77C355.91 469.77 390.63 507.36 388.86 517.77C387.09 528.18 355.91 469.77 355.91 469.77Z" fill="black"/>
<path opacity="0.1" d="M299.51 605.56C299.51 605.56 274.06 629.01 266.56 630.34C259.06 631.67 272.31 636.09 280.93 632.56C289.55 629.03 307.93 619.74 307.93 619.74L299.51 605.56Z" fill="black"/>
<path d="M487.27 782.68H427.92C419.62 775.48 411.77 768.81 406.77 764.8C398.77 758.38 393 748.93 389.32 741.33C388.49 739.6 387.77 737.98 387.16 736.51C386.067 733.978 385.106 731.391 384.28 728.76L428.23 702.66C430.659 704.726 432.941 706.958 435.06 709.34L435.59 709.95C438.03 712.83 440.18 716.1 440.37 718.78C440.59 721.9 449.27 733.97 458.14 745.56C467.14 757.35 476.36 768.62 476.97 769.38C476.97 769.38 478.49 771.45 480.97 774.63C482.72 776.93 484.88 779.69 487.27 782.68Z" fill="#FFCCD0"/>
<path opacity="0.1" d="M406.67 276.04C404.56 280.8 402.67 285.74 402.39 291.04C401.6 306.34 402.88 340.55 385.94 348.23C377.55 352.01 368.57 343.71 359.37 343.51C352.75 343.37 346.68 347.57 342.64 352.82C338.6 358.07 336.09 364.3 333.16 370.24C330.493 375.631 327.421 380.813 323.97 385.74C322.939 387.248 321.802 388.681 320.57 390.03C310.241 385.671 301.043 379.012 293.676 370.56C286.31 362.108 280.971 352.087 278.065 341.258C275.158 330.43 274.762 319.082 276.906 308.077C279.051 297.073 283.678 286.703 290.437 277.758C297.196 268.813 305.907 261.529 315.908 256.461C325.908 251.393 336.933 248.674 348.143 248.512C359.354 248.35 370.453 250.749 380.595 255.527C390.738 260.304 399.656 267.334 406.67 276.08V276.04Z" fill="black"/>
<path d="M401.06 288.34C400.26 303.64 401.55 337.85 384.6 345.52C376.21 349.3 367.23 341.01 358.03 340.81C351.41 340.66 345.35 344.87 341.3 350.11C337.25 355.35 334.76 361.59 331.82 367.54C329.152 372.931 326.08 378.113 322.63 383.04C320.57 385.96 318.29 388.89 315.12 390.53C309.6 393.41 302.91 391.79 296.99 389.94C289.31 387.52 281.743 384.793 274.29 381.76C274.461 380.635 274.548 379.498 274.55 378.36C274.33 378.78 274.09 379.17 273.85 379.59L273.38 380.41C272.53 381.91 271.7 383.41 270.94 384.95C270.65 385.54 270.37 386.15 270.12 386.76C269.114 389.03 268.483 391.448 268.25 393.92C267.74 400.59 271.03 406.92 273.95 412.92C285.18 436.13 292.12 463.27 283.67 487.62C280.01 498.21 273.67 507.62 269.04 517.85C260.946 535.969 258.564 556.123 262.21 575.63C264.52 587.75 269.15 599.75 268.01 612.04C266.01 633.19 247.77 648.93 229.5 659.75C219.63 665.57 207.55 670.75 197.07 666.15C203.75 658.35 205.47 647.56 206.91 637.38C210.85 609.613 214.8 581.833 218.76 554.04C220.34 542.98 221.916 531.92 223.49 520.86C226.43 500.08 229.41 479.07 227.57 458.16C226.23 442.75 222.45 426.39 229.13 412.44C232.66 405.05 238.95 398.93 240.91 390.97C242.52 384.5 241.02 377.62 242.08 371.03C242.66 368.032 243.642 365.126 245 362.39C246.729 358.678 248.985 355.236 251.7 352.17C249.02 351.39 246.52 350.32 245 348.08C249.3 345.28 249.95 338.97 248 334.23C246.05 329.49 242.15 325.88 238.64 322.14C235.13 318.4 231.75 314.04 231.31 308.94C230.46 299.23 240.16 291.71 241.87 282.13C243.6 272.38 236.76 262.9 237.31 253.03C237.95 241.1 248.91 232.43 259.73 227.4C276.058 219.842 294.094 216.737 312.01 218.4C326.59 219.78 340.7 224.29 355.24 226.04C364.01 227.04 372.9 227.14 381.61 228.68C390.32 230.22 399.05 233.47 405.18 239.86C421.34 256.71 401.98 270.58 401.06 288.34Z" fill="#FFE0D0"/>
<path opacity="0.1" d="M387.54 741.34C382.44 739.13 373.16 740.45 357.23 735.6C341.3 730.75 338.23 708.83 338.23 708.83V708.76C338.04 708.26 336.56 705 326.54 693.58C315.47 680.97 291.54 617.28 291.54 617.28C291.54 617.28 270.32 594.49 270.99 586.09C271.66 577.69 267.22 555.34 267.66 530.34C268.1 505.34 315.43 488.76 315.43 488.76C406.56 472.61 385.1 577.67 382.67 585.63C380.24 593.59 392.85 615.09 392.85 615.09C391.07 624.45 400.15 638.94 400.15 638.94C400.15 638.94 402.35 651.76 402.8 656.63C402.825 656.855 402.875 657.076 402.95 657.29C404.41 661.88 416.31 666.04 421.15 668.57C426.24 671.23 442.61 694.45 442.61 694.45C446.14 711.5 392.62 743.58 387.54 741.34Z" fill="black"/>
<path d="M390.19 737.34C385.1 735.12 375.81 736.45 359.89 731.59C343.97 726.73 340.89 704.83 340.89 704.83V704.76C340.71 704.25 339.22 701 329.2 689.58C318.13 676.97 294.2 613.27 294.2 613.27C294.2 613.27 272.98 590.49 273.64 582.09C274.3 573.69 269.88 551.34 270.32 526.36C270.76 501.38 318.06 484.81 318.06 484.81C409.19 468.66 387.73 573.72 385.3 581.68C382.87 589.64 395.48 611.14 395.48 611.14C393.7 620.5 402.78 634.99 402.78 634.99C402.78 634.99 404.98 647.81 405.44 652.68C405.457 652.905 405.504 653.127 405.58 653.34C407.04 657.93 418.94 662.09 423.79 664.62C428.87 667.27 445.25 690.5 445.25 690.5C448.8 707.52 395.28 739.6 390.19 737.34Z" fill="#C36C89"/>
<path opacity="0.1" d="M319.86 539.66C319.86 539.66 359.67 581.66 370.06 581.66C380.45 581.66 319.86 539.66 319.86 539.66Z" fill="black"/>
<path d="M390.19 737.34C385.1 735.12 375.81 736.45 359.89 731.59C343.97 726.73 340.89 704.83 340.89 704.83V704.76C351.44 697.76 378.16 677.99 388.69 670.76C396.1 665.69 402.15 658.24 405.69 653.3C407.15 657.89 419.05 662.05 423.9 664.58C428.98 667.23 445.36 690.46 445.36 690.46C448.8 707.52 395.28 739.6 390.19 737.34Z" fill="#C36C89"/>
<g opacity="0.1">
<path d="M245.06 348.19C245.11 348.27 245.18 348.34 245.24 348.42C245.54 348.04 245.85 347.66 246.17 347.3C245.829 347.631 245.458 347.929 245.06 348.19V348.19Z" fill="black"/>
<path d="M268.26 394.03C268.68 388.48 271.65 383.59 274.43 378.71C272.61 378.01 270.79 377.3 268.99 376.56C269.161 375.438 269.248 374.305 269.25 373.17C266.44 378.17 263.38 383.09 262.95 388.72C262.44 395.4 265.73 401.72 268.65 407.72C279.89 430.92 286.82 458.06 278.37 482.42C274.7 493 268.37 502.42 263.74 512.65C255.649 530.766 253.27 550.918 256.92 570.42C259.21 582.55 263.85 594.54 262.71 606.83C260.71 627.98 242.48 643.72 224.2 654.53C216.73 658.95 208 663 199.65 662.71C198.877 663.954 198.015 665.141 197.07 666.26C207.56 670.89 219.63 665.68 229.5 659.84C247.79 649.04 266.06 633.34 268.06 612.15C269.2 599.86 264.56 587.87 262.26 575.74C258.609 556.24 260.981 536.09 269.06 517.97C273.66 507.75 280.06 498.32 283.69 487.74C292.14 463.38 285.2 436.24 273.97 413.04C271.06 407 267.75 400.71 268.26 394.03Z" fill="black"/>
<path d="M405.16 239.98C404.176 238.971 403.12 238.035 402 237.18C414.12 252.9 396.62 266.26 395.75 283.18C394.97 298.48 396.25 332.7 379.3 340.36C370.92 344.15 361.93 335.85 352.74 335.65C346.11 335.51 340.05 339.72 336 344.96C331.95 350.2 329.46 356.44 326.53 362.38C323.857 367.77 320.782 372.952 317.33 377.88C315.33 380.81 312.99 383.73 309.81 385.38C304.31 388.25 297.62 386.64 291.69 384.78C285.923 382.967 280.21 380.967 274.55 378.78C274.538 379.822 274.451 380.861 274.29 381.89C281.75 384.93 289.32 387.657 297 390.07C302.92 391.93 309.61 393.54 315.12 390.67C318.29 389.02 320.59 386.09 322.64 383.16C326.094 378.239 329.166 373.06 331.83 367.67C334.77 361.73 337.25 355.48 341.31 350.24C345.37 345 351.42 340.8 358.04 340.94C367.24 341.14 376.23 349.44 384.61 345.65C401.56 337.99 400.27 303.77 401.06 288.47C401.98 270.68 421.34 256.82 405.16 239.98Z" fill="black"/>
</g>
<path opacity="0.1" d="M273.39 380.42C272.54 381.92 271.71 383.42 270.95 384.96C270.66 385.55 270.38 386.16 270.13 386.77C264.89 381.49 252.13 368.94 245.01 365.05C246.741 361.339 248.997 357.897 251.71 354.83C251.71 354.83 268.68 363.8 273.39 380.42Z" fill="black"/>
<path d="M273.86 379.6C269.93 361.81 251.71 352.18 251.71 352.18C248.995 355.246 246.738 358.688 245.01 362.4C252.52 366.51 266.36 380.29 270.95 384.96L273.86 379.6Z" fill="#C36C89"/>
</g>
<defs>
<linearGradient id="paint0_linear_33_2" x1="730.03" y1="95.41" x2="730.03" y2="77.03" gradientUnits="userSpaceOnUse">
<stop stop-color="#808080" stop-opacity="0.25"/>
<stop offset="0.54" stop-color="#808080" stop-opacity="0.12"/>
<stop offset="1" stop-color="#808080" stop-opacity="0.1"/>
</linearGradient>
<linearGradient id="paint1_linear_33_2" x1="562.83" y1="782.68" x2="562.83" y2="-9.33936e-05" gradientUnits="userSpaceOnUse">
<stop stop-color="#808080" stop-opacity="0.25"/>
<stop offset="0.54" stop-color="#808080" stop-opacity="0.12"/>
<stop offset="1" stop-color="#808080" stop-opacity="0.1"/>
</linearGradient>
<clipPath id="clip0_33_2">
<rect width="1086.13" height="782.67" fill="white"/>
</clipPath>
</defs>
</svg>
