<svg width="1199" height="1021" viewBox="0 0 1199 1021" fill="none" xmlns="http://www.w3.org/2000/svg">
<g clip-path="url(#clip0_13_7)">
<path d="M563.447 857.107C563.447 857.107 578.707 828.895 598.299 845.576C617.891 862.256 654.175 890.4 654.175 890.4C654.175 890.4 661.606 908.402 642.372 901.64C623.137 894.879 560.348 883.997 560.348 883.997L563.447 857.107Z" fill="#FEB8B8"/>
<path d="M136.981 677.942C141.844 633.879 166.078 590.464 203.372 576.125C188.664 621.478 188.667 671.232 203.381 716.583C209.111 734.049 217.099 752.804 211.709 770.408C208.355 781.362 200.15 789.742 190.979 794.982C181.807 800.223 171.629 802.72 161.577 805.168L159.599 807.011C143.643 766.412 132.118 722.005 136.981 677.942Z" fill="#B8DFC8"/>
<path d="M203.742 576.958C182.024 604.378 168.525 638.812 165.164 675.369C164.316 683.225 164.573 691.182 165.924 698.947C167.457 706.464 170.749 713.38 175.457 718.979C179.753 724.298 184.695 729.178 187.769 735.582C189.299 738.886 190.193 742.518 190.39 746.238C190.588 749.959 190.085 753.684 188.915 757.17C186.201 765.942 180.852 773.092 175.405 779.88C169.357 787.416 162.969 795.135 160.398 805.126C160.086 806.337 158.438 805.721 158.749 804.512C163.222 787.13 178.196 777.257 185.337 761.601C188.669 754.296 190.068 745.815 186.944 738.103C184.213 731.36 179.121 726.322 174.729 720.979C170.065 715.593 166.643 709.003 164.76 701.783C163.063 694.12 162.535 686.188 163.199 678.325C164.443 660.597 168.154 643.2 174.194 626.771C180.996 607.978 190.6 590.634 202.592 575.49C203.335 574.553 204.479 576.027 203.742 576.958V576.958Z" fill="white"/>
<path d="M165.632 663.526C160.265 662.058 155.536 658.488 152.29 653.454C149.043 648.42 147.491 642.249 147.909 636.044C147.998 634.789 149.733 634.885 149.644 636.142C149.245 641.919 150.692 647.667 153.723 652.348C156.755 657.029 161.172 660.334 166.176 661.668C167.263 661.959 166.713 663.816 165.632 663.526Z" fill="white"/>
<path d="M172.963 716.605C182.656 710.083 189.811 699.685 193.002 687.483C193.317 686.274 194.966 686.889 194.651 688.097C191.309 700.787 183.844 711.591 173.744 718.353C172.781 718.997 172.005 717.245 172.963 716.605V716.605Z" fill="white"/>
<path d="M182.607 609.832C184.579 610.887 186.752 611.374 188.932 611.25C191.111 611.125 193.23 610.392 195.096 609.117C196.051 608.46 196.826 610.212 195.877 610.865C193.809 612.263 191.469 613.069 189.061 613.213C186.653 613.357 184.25 612.834 182.063 611.69C181.848 611.601 181.672 611.425 181.57 611.195C181.467 610.965 181.446 610.7 181.51 610.454C181.584 610.208 181.74 610.005 181.945 609.889C182.151 609.772 182.388 609.751 182.607 609.832V609.832Z" fill="white"/>
<path d="M317.047 654.827C316.461 655.256 315.875 655.686 315.288 656.132C307.434 661.951 300.013 668.48 293.097 675.654C292.554 676.199 292.012 676.761 291.484 677.322C274.986 694.806 261.512 715.589 251.748 738.615C247.869 747.782 244.616 757.268 242.015 766.991C238.423 780.419 235.477 795.301 228.368 806.284C227.638 807.439 226.845 808.543 225.994 809.587H161.749C161.603 809.505 161.456 809.439 161.309 809.356L158.744 809.488C158.847 808.976 158.964 808.448 159.067 807.936C159.126 807.638 159.199 807.341 159.257 807.044C159.301 806.846 159.345 806.647 159.375 806.466C159.389 806.4 159.404 806.334 159.418 806.284C159.448 806.102 159.492 805.937 159.521 805.772C160.166 802.816 160.831 799.859 161.515 796.903C161.515 796.886 161.515 796.886 161.529 796.87C166.792 774.357 173.768 752.143 183.516 731.827C183.809 731.216 184.102 730.588 184.424 729.977C188.863 720.848 193.957 712.142 199.654 703.947C202.787 699.471 206.118 695.177 209.636 691.081C218.744 680.516 229.269 671.632 240.827 664.753C263.869 651.044 290.546 645.792 315.171 654.166C315.801 654.381 316.417 654.595 317.047 654.827Z" fill="#B8DFC8"/>
<path d="M316.903 655.746C284.911 662.905 255.735 681.241 233.519 708.15C228.645 713.847 224.598 720.374 221.528 727.491C218.736 734.533 217.668 742.288 218.436 749.952C219.024 757.114 220.362 764.364 219.395 771.562C218.852 775.239 217.625 778.744 215.795 781.849C213.965 784.953 211.573 787.587 208.776 789.577C201.922 794.74 193.83 796.819 185.854 798.543C176.999 800.457 167.774 802.287 160.383 808.52C159.488 809.275 158.5 807.665 159.394 806.911C172.253 796.067 189.485 798.343 203.552 790.687C210.115 787.115 215.764 781.292 217.39 773.016C218.812 765.778 217.438 758.301 216.786 751.055C215.94 743.591 216.729 736.007 219.083 728.966C221.822 721.696 225.639 715.004 230.37 709.177C240.836 695.866 253.094 684.493 266.695 675.473C282.167 665.082 299.103 657.75 316.769 653.794C317.863 653.55 317.989 655.503 316.903 655.746H316.903Z" fill="white"/>
<path d="M240.219 699.011C236.719 694.198 234.851 688.139 234.948 681.917C235.046 675.695 237.104 669.715 240.753 665.045C241.494 664.103 242.828 665.356 242.086 666.3C238.681 670.642 236.765 676.213 236.684 682.007C236.604 687.801 238.364 693.436 241.647 697.896C242.36 698.866 240.928 699.975 240.219 699.011H240.219Z" fill="white"/>
<path d="M217.713 746.365C228.936 747.734 240.205 744.285 249.273 736.708C250.171 735.956 251.159 737.566 250.262 738.316C240.813 746.182 229.079 749.744 217.403 748.29C216.29 748.151 216.606 746.226 217.713 746.365V746.365Z" fill="white"/>
<path d="M282.463 667.655C283.473 669.836 284.948 671.699 286.755 673.078C288.562 674.458 290.645 675.31 292.816 675.558C293.93 675.681 293.613 677.606 292.506 677.483C290.108 677.197 287.809 676.252 285.809 674.734C283.81 673.215 282.171 671.167 281.035 668.77C280.912 668.554 280.865 668.293 280.906 668.04C280.947 667.787 281.071 667.561 281.255 667.408C281.444 667.262 281.678 667.205 281.904 667.252C282.13 667.298 282.331 667.443 282.463 667.655V667.655Z" fill="white"/>
<path d="M655.119 969.98C657.004 952.904 666.396 936.078 680.849 930.521C675.149 948.098 675.15 967.38 680.853 984.956C683.073 991.725 686.169 998.993 684.08 1005.82C682.584 1010.03 679.708 1013.44 676.046 1015.34C672.413 1017.2 668.584 1018.53 664.651 1019.29L663.885 1020C657.701 1004.27 653.234 987.057 655.119 969.98Z" fill="#B8DFC8"/>
<path d="M680.992 930.844C672.576 941.47 667.344 954.815 666.042 968.983C665.713 972.028 665.813 975.111 666.336 978.121C666.931 981.034 668.206 983.715 670.031 985.884C671.847 987.804 673.449 989.964 674.802 992.319C675.395 993.599 675.742 995.007 675.818 996.449C675.895 997.89 675.7 999.334 675.247 1000.69C674.042 1003.98 672.261 1006.98 670.01 1009.49C667.667 1012.41 665.191 1015.4 664.195 1019.27C664.074 1019.74 663.435 1019.5 663.556 1019.03C665.289 1012.3 671.092 1008.47 673.86 1002.4C674.573 1001.04 675 999.509 675.108 997.931C675.216 996.352 675.002 994.767 674.483 993.296C673.228 990.814 671.63 988.574 669.749 986.659C667.941 984.572 666.615 982.018 665.885 979.22C665.227 976.25 665.023 973.176 665.28 970.129C665.762 963.258 667.2 956.516 669.541 950.149C672.177 942.865 675.9 936.144 680.547 930.275C680.835 929.912 681.278 930.483 680.993 930.844H680.992Z" fill="#3E8A5D"/>
<path d="M666.223 964.394C664.143 963.825 662.31 962.441 661.052 960.49C659.794 958.539 659.192 956.148 659.355 953.743C659.389 953.256 660.061 953.294 660.027 953.781C659.872 956.02 660.433 958.247 661.608 960.061C662.783 961.875 664.494 963.157 666.434 963.673C666.855 963.786 666.642 964.506 666.223 964.394H666.223Z" fill="#77A58A"/>
<path d="M669.064 984.964C672.821 982.437 675.594 978.407 676.83 973.678C676.952 973.209 677.592 973.448 677.469 973.916C676.174 978.834 673.281 983.021 669.367 985.642C668.994 985.891 668.693 985.212 669.064 984.964V984.964Z" fill="#77A58A"/>
<path d="M672.802 943.584C673.566 943.993 674.408 944.182 675.253 944.134C676.097 944.085 676.918 943.801 677.642 943.307C678.012 943.052 678.312 943.731 677.944 943.985C677.143 944.526 676.236 944.839 675.303 944.895C674.369 944.95 673.438 944.748 672.591 944.304C672.507 944.27 672.439 944.201 672.399 944.112C672.36 944.023 672.351 943.921 672.377 943.825C672.405 943.73 672.465 943.651 672.545 943.606C672.625 943.561 672.717 943.553 672.802 943.584L672.802 943.584Z" fill="#77A58A"/>
<path d="M724.905 961.022C724.677 961.188 724.45 961.355 724.223 961.528C721.179 963.783 718.303 966.313 715.623 969.094C715.412 969.305 715.202 969.523 714.998 969.74C708.604 976.516 703.382 984.571 699.597 993.495C698.094 997.047 696.833 1000.72 695.825 1004.49C694.434 1009.7 693.292 1015.46 690.537 1019.72C690.254 1020.17 689.946 1020.6 689.616 1021H664.718C664.662 1020.97 664.605 1020.94 664.548 1020.91L663.554 1020.96C663.594 1020.76 663.639 1020.56 663.679 1020.36C663.702 1020.24 663.73 1020.13 663.753 1020.01C663.77 1019.94 663.787 1019.86 663.798 1019.79C663.804 1019.76 663.809 1019.74 663.815 1019.72C663.826 1019.65 663.844 1019.59 663.855 1019.52C664.105 1018.38 664.362 1017.23 664.627 1016.08L664.633 1016.07C666.579 1007.32 669.439 998.857 673.154 990.864C673.268 990.627 673.381 990.384 673.506 990.147C675.226 986.609 677.2 983.235 679.408 980.059C680.622 978.324 681.914 976.66 683.277 975.072C686.807 970.978 690.886 967.535 695.365 964.869C704.295 959.556 714.634 957.521 724.177 960.766C724.422 960.849 724.66 960.932 724.905 961.022Z" fill="#B8DFC8"/>
<path d="M724.849 961.378C712.45 964.153 701.143 971.259 692.533 981.687C690.644 983.895 689.076 986.425 687.886 989.183C686.804 991.912 686.39 994.918 686.687 997.888C687.112 1000.65 687.237 1003.46 687.059 1006.26C686.849 1007.69 686.373 1009.05 685.664 1010.25C684.955 1011.45 684.028 1012.47 682.944 1013.24C680.219 1015.06 677.198 1016.24 674.061 1016.72C670.629 1017.46 667.053 1018.17 664.189 1020.59C663.842 1020.88 663.459 1020.25 663.806 1019.96C668.789 1015.76 675.467 1016.64 680.919 1013.67C682.217 1013.07 683.376 1012.14 684.305 1010.95C685.235 1009.76 685.911 1008.35 686.282 1006.83C686.606 1003.99 686.527 1001.12 686.048 998.316C685.72 995.423 686.026 992.484 686.938 989.755C688 986.937 689.479 984.344 691.313 982.085C695.369 976.927 700.119 972.519 705.39 969.024C711.387 964.996 717.95 962.155 724.797 960.622C725.221 960.527 725.27 961.284 724.849 961.378H724.849Z" fill="#77A58A"/>
<path d="M695.13 978.146C693.773 976.28 693.049 973.932 693.087 971.521C693.125 969.11 693.922 966.792 695.336 964.982C695.624 964.617 696.141 965.103 695.853 965.469C694.533 967.151 693.791 969.31 693.76 971.556C693.728 973.801 694.411 975.985 695.683 977.714C695.959 978.09 695.404 978.52 695.13 978.146Z" fill="#77A58A"/>
<path d="M686.407 996.498C690.757 997.028 695.124 995.692 698.638 992.755C698.986 992.464 699.369 993.088 699.022 993.379C695.36 996.427 690.812 997.808 686.287 997.244C685.856 997.19 685.978 996.444 686.407 996.498H686.407Z" fill="#77A58A"/>
<path d="M711.502 965.994C711.893 966.839 712.465 967.561 713.165 968.096C713.865 968.63 714.673 968.96 715.514 969.056C715.946 969.104 715.823 969.85 715.394 969.803C714.465 969.692 713.573 969.326 712.798 968.737C712.024 968.148 711.388 967.355 710.948 966.426C710.9 966.342 710.882 966.241 710.898 966.143C710.914 966.045 710.962 965.957 711.033 965.898C711.107 965.841 711.197 965.819 711.285 965.837C711.373 965.855 711.45 965.912 711.502 965.994V965.994Z" fill="#77A58A"/>
<path d="M1082.89 607.242C1075.42 539.515 1038.17 472.784 980.848 450.744C1003.45 520.454 1003.45 596.928 980.834 666.634C972.026 693.482 959.748 722.309 968.033 749.367C973.188 766.203 985.799 779.084 999.896 787.139C1013.99 795.193 1029.64 799.032 1045.09 802.794L1048.13 805.627C1072.65 743.224 1090.37 674.97 1082.89 607.242Z" fill="#B8DFC8"/>
<path d="M980.279 452.024C1013.66 494.171 1034.41 547.098 1039.57 603.288C1040.62 615.333 1040.74 627.655 1038.41 639.528C1036.05 651.081 1030.99 661.713 1023.75 670.317C1017.15 678.493 1009.55 685.995 1004.83 695.837C999.849 706.212 999.658 718 1003.07 729.02C1007.24 742.503 1015.46 753.493 1023.83 763.925C1033.13 775.508 1042.95 787.374 1046.9 802.73C1047.38 804.59 1049.91 803.644 1049.43 801.787C1042.56 775.07 1019.54 759.894 1008.57 735.83C1003.45 724.601 1001.3 711.565 1006.1 699.712C1010.3 689.348 1018.12 681.605 1024.87 673.391C1031.96 664.767 1037.4 655.305 1040.19 643.887C1043.06 632.207 1043.36 619.854 1042.6 607.831C1040.68 580.583 1034.98 553.842 1025.69 528.59C1015.24 499.704 1000.48 473.045 982.046 449.768C980.904 448.328 979.145 450.594 980.279 452.024L980.279 452.024Z" fill="white"/>
<path d="M1038.86 585.084C1047.1 582.828 1054.37 577.341 1059.36 569.603C1064.35 561.865 1066.74 552.381 1066.1 542.844C1065.96 540.914 1063.29 541.062 1063.43 542.994C1064.04 551.874 1061.82 560.708 1057.16 567.903C1052.5 575.097 1045.71 580.178 1038.02 582.228C1036.35 582.676 1037.19 585.53 1038.86 585.084H1038.86Z" fill="white"/>
<path d="M1027.59 666.669C1012.69 656.645 1001.69 640.662 996.786 621.907C996.302 620.049 993.768 620.994 994.252 622.85C999.388 642.357 1010.86 658.963 1026.39 669.356C1027.87 670.345 1029.06 667.653 1027.59 666.669V666.669Z" fill="white"/>
<path d="M1012.76 502.553C1009.73 504.176 1006.39 504.925 1003.04 504.733C999.692 504.542 996.436 503.415 993.567 501.455C992.099 500.445 990.908 503.138 992.367 504.142C995.545 506.291 999.142 507.53 1002.84 507.751C1006.55 507.972 1010.24 507.168 1013.6 505.41C1013.93 505.274 1014.2 505.002 1014.36 504.649C1014.52 504.296 1014.55 503.889 1014.45 503.51C1014.34 503.132 1014.1 502.82 1013.78 502.641C1013.47 502.462 1013.1 502.43 1012.76 502.553V502.553Z" fill="white"/>
<path d="M806.123 571.713C807.024 572.373 807.925 573.033 808.827 573.719C820.899 582.664 832.306 592.699 842.936 603.726C843.77 604.563 844.604 605.427 845.415 606.29C870.773 633.163 891.483 665.108 906.492 700.5C912.453 714.59 917.454 729.17 921.452 744.115C926.972 764.754 931.5 787.628 942.427 804.51C943.55 806.286 944.769 807.981 946.077 809.587H1044.82C1045.05 809.46 1045.27 809.359 1045.5 809.232L1049.44 809.435C1049.28 808.648 1049.1 807.836 1048.95 807.049C1048.86 806.592 1048.74 806.135 1048.65 805.678C1048.59 805.373 1048.52 805.068 1048.47 804.789C1048.45 804.688 1048.43 804.586 1048.41 804.51C1048.36 804.231 1048.29 803.977 1048.25 803.723C1047.26 799.179 1046.24 794.635 1045.18 790.09C1045.18 790.065 1045.18 790.065 1045.16 790.04C1037.07 755.437 1026.35 721.292 1011.37 690.066C1010.92 689.127 1010.47 688.162 1009.97 687.223C1003.15 673.19 995.319 659.809 986.562 647.213C981.747 640.334 976.626 633.733 971.219 627.437C957.22 611.199 941.042 597.543 923.277 586.97C887.86 565.899 846.857 557.826 809.006 570.698C808.038 571.028 807.091 571.357 806.123 571.713Z" fill="#B8DFC8"/>
<path d="M806.345 573.125C855.518 584.13 900.363 612.314 934.511 653.673C941.779 662.584 948.463 672.336 952.941 683.401C957.233 694.225 958.874 706.145 957.694 717.925C956.789 728.934 954.733 740.076 956.219 751.14C957.785 762.803 963.931 772.345 972.541 778.83C983.077 786.765 995.514 789.962 1007.77 792.612C1021.38 795.553 1035.56 798.366 1046.92 807.946C1048.3 809.107 1049.82 806.633 1048.44 805.474C1028.68 788.806 1002.19 792.303 980.571 780.536C970.482 775.046 961.801 766.096 959.302 753.374C957.116 742.25 959.228 730.758 960.229 719.621C961.28 707.926 960.564 696.684 956.699 685.668C952.745 674.4 946.384 664.332 939.35 655.251C923.264 634.793 904.423 617.311 883.517 603.447C859.736 587.476 833.705 576.206 806.55 570.125C804.87 569.75 804.676 572.752 806.345 573.125V573.125Z" fill="white"/>
<path d="M924.211 639.626C929.591 632.228 932.463 622.916 932.312 613.353C932.162 603.789 929 594.597 923.391 587.419C922.251 585.971 920.201 587.898 921.341 589.348C926.576 596.022 929.521 604.584 929.644 613.49C929.768 622.396 927.063 631.058 922.016 637.913C920.921 639.404 923.122 641.109 924.211 639.626L924.211 639.626Z" fill="white"/>
<path d="M958.805 712.412C941.553 714.516 924.232 709.215 910.295 697.568C908.915 696.413 907.397 698.887 908.775 700.041C923.299 712.131 941.334 717.605 959.281 715.371C960.992 715.157 960.506 712.199 958.805 712.412V712.412Z" fill="white"/>
<path d="M859.28 591.431C857.728 594.783 855.461 597.647 852.683 599.767C849.906 601.887 846.704 603.196 843.366 603.578C841.654 603.768 842.142 606.726 843.843 606.537C847.529 606.097 851.063 604.646 854.137 602.311C857.21 599.976 859.73 596.829 861.475 593.144C861.665 592.812 861.736 592.411 861.673 592.023C861.611 591.634 861.419 591.287 861.137 591.051C860.846 590.826 860.487 590.74 860.14 590.811C859.792 590.882 859.483 591.105 859.28 591.431V591.431Z" fill="white"/>
<path d="M1198.01 811.239H1.46577C1.07702 811.239 0.704198 811.065 0.429313 810.755C0.154428 810.445 0 810.025 0 809.587C0 809.149 0.154428 808.729 0.429313 808.419C0.704198 808.11 1.07702 807.936 1.46577 807.936H1197.53C1197.92 807.936 1198.3 808.11 1198.57 808.419C1198.85 808.729 1199 809.149 1199 809.587C1199 810.499 1198.82 811.239 1198.01 811.239Z" fill="#CACACA"/>
<path d="M419.689 956.585H155.372C154.983 956.585 154.61 956.411 154.335 956.101C154.06 955.792 153.906 955.371 153.906 954.933C153.906 954.495 154.06 954.075 154.335 953.766C154.61 953.456 154.983 953.282 155.372 953.282H419.21C419.599 953.282 419.972 953.456 420.247 953.766C420.521 954.075 420.676 954.495 420.676 954.933C420.676 955.846 420.499 956.585 419.689 956.585Z" fill="#CACACA"/>
<path d="M834.502 1021H570.185C569.796 1021 569.423 1020.83 569.148 1020.52C568.873 1020.21 568.719 1019.79 568.719 1019.35C568.719 1018.91 568.873 1018.49 569.148 1018.18C569.423 1017.87 569.796 1017.7 570.185 1017.7H834.023C834.412 1017.7 834.785 1017.87 835.06 1018.18C835.334 1018.49 835.489 1018.91 835.489 1019.35C835.489 1020.26 835.312 1021 834.502 1021Z" fill="#CACACA"/>
<path d="M1083.68 954.933H819.366C818.977 954.933 818.604 954.76 818.329 954.45C818.054 954.14 817.9 953.72 817.9 953.282C817.9 952.844 818.054 952.424 818.329 952.114C818.604 951.804 818.977 951.63 819.366 951.63H1083.2C1083.59 951.63 1083.97 951.804 1084.24 952.114C1084.52 952.424 1084.67 952.844 1084.67 953.282C1084.67 954.194 1084.49 954.933 1083.68 954.933Z" fill="#CACACA"/>
<path d="M488.48 892.17C472.061 892.17 457.029 890.398 445.086 886.207C430.89 881.226 421.976 873.171 418.59 862.248C416.998 857.611 416.523 852.581 417.212 847.67C417.902 842.759 419.731 838.14 422.514 834.282C443.515 803.447 516.391 794.75 526.17 793.722L546.007 751.394C547.277 741.295 541.271 733.65 551.647 733.459L674.383 731.58C684.572 731.339 681.68 738.449 683.425 748.296L702.125 785.911L621.645 824.185L633.813 857.596L633.019 858.116C609.464 873.511 541.727 892.168 488.48 892.17Z" fill="#2F2E41"/>
<path d="M690.983 787.517C690.983 787.517 803.379 773.023 796.049 830.998C788.718 888.973 703.2 930.038 573.701 830.998L588.361 802.011C588.361 802.011 636.618 799.306 665.939 784.812L690.983 787.517Z" fill="#2F2E41"/>
<path d="M531.86 524.87C531.86 524.87 510.498 520.494 504.672 557.695C498.846 594.896 489.513 683.017 489.513 683.017L460.536 796.211C457.119 798.256 454.288 801.354 452.374 805.143C450.461 808.933 449.543 813.258 449.73 817.613C449.916 821.968 451.198 826.173 453.426 829.738C455.655 833.302 458.737 836.079 462.313 837.743C465.89 839.408 469.812 839.891 473.623 839.137C477.434 838.383 480.977 836.423 483.836 833.485C486.695 830.548 488.754 826.754 489.771 822.547C490.788 818.341 490.722 813.895 489.581 809.729L528.354 689.59L535.744 586.152V531.952C535.744 530.481 535.381 529.04 534.695 527.789C534.009 526.539 533.027 525.528 531.86 524.87V524.87Z" fill="#FEB8B8"/>
<path d="M682.225 524.87C682.225 524.87 703.587 520.494 709.413 557.695C715.239 594.896 724.572 683.017 724.572 683.017L753.549 796.211C756.966 798.256 759.797 801.354 761.711 805.143C763.624 808.933 764.541 813.258 764.355 817.613C764.169 821.968 762.887 826.173 760.658 829.738C758.43 833.302 755.348 836.079 751.772 837.743C748.195 839.408 744.272 839.891 740.461 839.137C736.65 838.383 733.108 836.423 730.249 833.485C727.39 830.548 725.331 826.754 724.314 822.547C723.296 818.341 723.362 813.895 724.504 809.729L685.731 689.59L678.341 586.152V531.952C678.341 530.481 678.704 529.04 679.39 527.789C680.076 526.539 681.058 525.528 682.225 524.87V524.87Z" fill="#FEB8B8"/>
<path d="M680.596 494.12L640.189 477.09L561.869 475.952L528.156 494.12L537.625 555.44C537.625 555.44 518.507 591.916 539.556 628.397L544.28 758.386C544.28 758.386 619.791 807.726 683.528 748.476L669.122 627.618C669.122 627.618 693.218 571.543 674.541 550.711L680.596 494.12Z" fill="#C36C89"/>
<path d="M664.139 513.175L680.596 494.12C680.596 494.12 716.515 515.409 715.775 586.613L670.466 570.879L664.139 513.175Z" fill="#C36C89"/>
<path d="M546.44 513.175L528.954 493.472C528.954 493.472 498.101 520.364 498.841 591.568L540.113 570.878L546.44 513.175Z" fill="#C36C89"/>
<path d="M660.423 843.021C660.423 843.021 647.837 813.18 626.818 827.485C605.798 841.79 567.124 865.55 567.124 865.55C567.124 865.55 558.078 882.587 577.83 878.106C597.583 873.625 661.035 870.128 661.035 870.128L660.423 843.021Z" fill="#FEB8B8"/>
<path d="M625.456 309.602C625.634 309.409 625.82 309.237 625.995 309.039C637.243 296.366 639.522 278.386 631.086 268.881C623.115 259.898 608.432 261.711 597.349 272.632C587.846 262.438 575.104 259.596 566.856 266.633C557.345 274.748 557.419 292.91 567.022 307.199C567.68 308.178 568.37 309.103 569.078 309.993C556.3 315.264 545.266 324.831 537.471 337.399C529.676 349.968 525.496 364.932 525.496 380.265V451.485C525.496 453.573 525.861 455.641 526.57 457.571C527.28 459.5 528.319 461.253 529.63 462.73C530.94 464.207 532.496 465.378 534.208 466.177C535.921 466.977 537.756 467.388 539.609 467.388H656.425C660.042 467.388 663.511 465.769 666.069 462.886C668.627 460.004 670.064 456.095 670.064 452.019V380.265C670.062 364.725 665.766 349.572 657.772 336.909C649.778 324.246 638.483 314.702 625.456 309.602Z" fill="#2F2E41"/>
<path d="M638.822 441.988C660.47 417.595 660.47 378.046 638.822 353.653C617.174 329.26 582.077 329.26 560.429 353.653C538.781 378.046 538.781 417.595 560.429 441.988C582.077 466.381 617.174 466.381 638.822 441.988Z" fill="#FFB6B6"/>
<path d="M541.379 358.532C554.046 368.369 569.081 373.605 584.465 373.536C578.977 377.823 572.73 380.72 566.153 382.025C586.608 386.969 607.748 387.103 628.25 382.418C632.807 381.595 637.205 379.893 641.249 377.387C643.265 376.119 645.021 374.387 646.403 372.303C647.786 370.22 648.764 367.832 649.273 365.295C650.636 356.525 644.571 348.557 638.269 343.187C628.619 335.091 617.493 329.513 605.695 326.857C593.898 324.2 581.724 324.532 570.054 327.828C562.434 330.047 554.801 333.797 549.851 340.692C544.902 347.588 543.436 358.218 548.151 365.319L541.379 358.532Z" fill="#2F2E41"/>
<path d="M244.886 233.886L246.633 231.232L293.169 270.129C290.64 261.444 281.689 233.91 267.014 222.924C249.484 209.8 237.15 213.882 230.43 225.279C223.71 236.676 225.149 251.07 242.68 264.195C257.54 275.321 284.013 273.774 291.736 273.044L244.886 233.886Z" fill="#B8DFC8"/>
<path d="M945.081 20.93L947.241 23.1638L908.069 71.2724C915.998 69.3415 941.231 62.1731 952.454 46.87C965.862 28.5881 963.541 14.3406 954.181 5.62433C944.821 -3.09192 931.966 -2.97648 918.558 15.3056C907.193 30.8025 905.805 60.6315 905.645 69.3631L945.081 20.93Z" fill="#A4D6B8"/>
<path d="M945.081 20.93L947.241 23.1638L908.069 71.2724C915.998 69.3415 941.231 62.1731 952.454 46.87C965.862 28.5881 963.541 14.3406 954.181 5.62433C944.821 -3.09192 931.966 -2.97648 918.558 15.3056C907.193 30.8025 905.805 60.6315 905.645 69.3631L945.081 20.93Z" fill="#B8DFC8"/>
<path d="M313.333 534.597L315.494 536.831L276.322 584.939C284.251 583.008 309.484 575.84 320.707 560.537C334.115 542.255 331.794 528.007 322.434 519.291C313.074 510.575 300.219 510.69 286.811 528.972C275.446 544.469 274.057 574.298 273.898 583.03L313.333 534.597Z" fill="#B8DFC8"/>
<path d="M644.564 76.0591L647.102 77.714L618.083 134.225C625.454 130.409 648.716 117.265 656.739 99.5903C666.323 78.4753 661.324 65.1297 650.513 58.8989C639.703 52.6682 627.174 55.9115 617.589 77.0268C609.465 94.9253 613.831 124.387 615.35 132.951L644.564 76.0591Z" fill="#B8DFC8"/>
<path d="M915.731 429.515L918.269 431.17L889.25 487.681C896.622 483.865 919.884 470.72 927.906 453.046C937.49 431.931 932.492 418.585 921.681 412.354C910.87 406.124 898.341 409.367 888.757 430.482C880.632 448.381 884.998 477.843 886.517 486.407L915.731 429.515Z" fill="#B8DFC8"/>
</g>
<defs>
<clipPath id="clip0_13_7">
<rect width="1199" height="1021" fill="white"/>
</clipPath>
</defs>
</svg>
