<svg id="visual" viewBox="0 0 1920 1080" width="1920" height="1080" xmlns="http://www.w3.org/2000/svg" xmlns:xlink="http://www.w3.org/1999/xlink" version="1.1"><rect x="0" y="0" width="1920" height="1080" fill="#e6afc1"></rect><defs><linearGradient id="grad1_0" x1="43.8%" y1="0%" x2="100%" y2="100%"><stop offset="14.444444444444446%" stop-color="#ca839a" stop-opacity="1"></stop><stop offset="85.55555555555554%" stop-color="#ca839a" stop-opacity="1"></stop></linearGradient></defs><defs><linearGradient id="grad1_1" x1="43.8%" y1="0%" x2="100%" y2="100%"><stop offset="14.444444444444446%" stop-color="#ca839a" stop-opacity="1"></stop><stop offset="85.55555555555554%" stop-color="#d18ea4" stop-opacity="1"></stop></linearGradient></defs><defs><linearGradient id="grad1_2" x1="43.8%" y1="0%" x2="100%" y2="100%"><stop offset="14.444444444444446%" stop-color="#d899ad" stop-opacity="1"></stop><stop offset="85.55555555555554%" stop-color="#d18ea4" stop-opacity="1"></stop></linearGradient></defs><defs><linearGradient id="grad1_3" x1="43.8%" y1="0%" x2="100%" y2="100%"><stop offset="14.444444444444446%" stop-color="#d899ad" stop-opacity="1"></stop><stop offset="85.55555555555554%" stop-color="#dfa4b7" stop-opacity="1"></stop></linearGradient></defs><defs><linearGradient id="grad1_4" x1="43.8%" y1="0%" x2="100%" y2="100%"><stop offset="14.444444444444446%" stop-color="#e6afc1" stop-opacity="1"></stop><stop offset="85.55555555555554%" stop-color="#dfa4b7" stop-opacity="1"></stop></linearGradient></defs><defs><linearGradient id="grad2_0" x1="0%" y1="0%" x2="56.3%" y2="100%"><stop offset="14.444444444444446%" stop-color="#ca839a" stop-opacity="1"></stop><stop offset="85.55555555555554%" stop-color="#ca839a" stop-opacity="1"></stop></linearGradient></defs><defs><linearGradient id="grad2_1" x1="0%" y1="0%" x2="56.3%" y2="100%"><stop offset="14.444444444444446%" stop-color="#d18ea4" stop-opacity="1"></stop><stop offset="85.55555555555554%" stop-color="#ca839a" stop-opacity="1"></stop></linearGradient></defs><defs><linearGradient id="grad2_2" x1="0%" y1="0%" x2="56.3%" y2="100%"><stop offset="14.444444444444446%" stop-color="#d18ea4" stop-opacity="1"></stop><stop offset="85.55555555555554%" stop-color="#d899ad" stop-opacity="1"></stop></linearGradient></defs><defs><linearGradient id="grad2_3" x1="0%" y1="0%" x2="56.3%" y2="100%"><stop offset="14.444444444444446%" stop-color="#dfa4b7" stop-opacity="1"></stop><stop offset="85.55555555555554%" stop-color="#d899ad" stop-opacity="1"></stop></linearGradient></defs><defs><linearGradient id="grad2_4" x1="0%" y1="0%" x2="56.3%" y2="100%"><stop offset="14.444444444444446%" stop-color="#dfa4b7" stop-opacity="1"></stop><stop offset="85.55555555555554%" stop-color="#e6afc1" stop-opacity="1"></stop></linearGradient></defs><g transform="translate(1920, 0)"><path d="M0 1026C-137.2 1015.2 -274.4 1004.4 -392.6 947.9C-510.9 891.4 -610.1 789.1 -683.8 683.8C-757.4 578.4 -805.5 470 -858.3 355.5C-911.1 241 -968.5 120.5 -1026 0L0 0Z" fill="#e3a9bc"></path><path d="M0 820.8C-109.8 812.2 -219.5 803.5 -314.1 758.3C-408.7 713.1 -488.1 631.3 -547 547C-605.9 462.7 -644.4 376 -686.6 284.4C-728.8 192.8 -774.8 96.4 -820.8 0L0 0Z" fill="#dc9eb2"></path><path d="M0 615.6C-82.3 609.1 -164.6 602.7 -235.6 568.7C-306.5 534.8 -366.1 473.5 -410.3 410.3C-454.5 347.1 -483.3 282 -515 213.3C-546.6 144.6 -581.1 72.3 -615.6 0L0 0Z" fill="#d593a9"></path><path d="M0 410.4C-54.9 406.1 -109.8 401.8 -157.1 379.2C-204.3 356.6 -244 315.6 -273.5 273.5C-303 231.4 -322.2 188 -343.3 142.2C-364.4 96.4 -387.4 48.2 -410.4 0L0 0Z" fill="#ce889f"></path><path d="M0 205.2C-27.4 203 -54.9 200.9 -78.5 189.6C-102.2 178.3 -122 157.8 -136.8 136.8C-151.5 115.7 -161.1 94 -171.7 71.1C-182.2 48.2 -193.7 24.1 -205.2 0L0 0Z" fill="#ca839a"></path></g><g transform="translate(0, 1080)"><path d="M0 -1026C140.9 -1020.9 281.9 -1015.8 392.6 -947.9C503.4 -880 583.9 -749.3 634.3 -634.3C684.6 -519.3 704.7 -420 765 -316.9C825.2 -213.8 925.6 -106.9 1026 0L0 0Z" fill="#e3a9bc"></path><path d="M0 -820.8C112.8 -816.7 225.5 -812.6 314.1 -758.3C402.7 -704 467.2 -599.4 507.4 -507.4C547.7 -415.4 563.8 -336 612 -253.5C660.2 -171 740.5 -85.5 820.8 0L0 0Z" fill="#dc9eb2"></path><path d="M0 -615.6C84.6 -612.5 169.1 -609.5 235.6 -568.7C302 -528 350.4 -449.6 380.6 -380.6C410.8 -311.6 422.8 -252 459 -190.1C495.1 -128.3 555.4 -64.1 615.6 0L0 0Z" fill="#d593a9"></path><path d="M0 -410.4C56.4 -408.4 112.8 -406.3 157.1 -379.2C201.4 -352 233.6 -299.7 253.7 -253.7C273.8 -207.7 281.9 -168 306 -126.7C330.1 -85.5 370.2 -42.8 410.4 0L0 0Z" fill="#ce889f"></path><path d="M0 -205.2C28.2 -204.2 56.4 -203.2 78.5 -189.6C100.7 -176 116.8 -149.9 126.9 -126.9C136.9 -103.9 140.9 -84 153 -63.4C165 -42.8 185.1 -21.4 205.2 0L0 0Z" fill="#ca839a"></path></g></svg>