<?xml version="1.0" standalone="no"?><svg xmlns="http://www.w3.org/2000/svg" viewBox="0 0 1440 320"><path fill="#EB8DAC" fill-opacity="1" d="M0,64L26.7,96C53.3,128,107,192,160,208C213.3,224,267,192,320,202.7C373.3,213,427,267,480,272C533.3,277,587,235,640,197.3C693.3,160,747,128,800,133.3C853.3,139,907,181,960,213.3C1013.3,245,1067,267,1120,250.7C1173.3,235,1227,181,1280,181.3C1333.3,181,1387,235,1413,261.3L1440,288L1440,0L1413.3,0C1386.7,0,1333,0,1280,0C1226.7,0,1173,0,1120,0C1066.7,0,1013,0,960,0C906.7,0,853,0,800,0C746.7,0,693,0,640,0C586.7,0,533,0,480,0C426.7,0,373,0,320,0C266.7,0,213,0,160,0C106.7,0,53,0,27,0L0,0Z"></path></svg>